<mxfile host="65bd71144e">
    <diagram id="Lv-_-L0VirUqEe9WQdkN" name="Page-1">
        <mxGraphModel dx="904" dy="841" grid="1" gridSize="10" guides="1" tooltips="1" connect="1" arrows="1" fold="1" page="1" pageScale="1" pageWidth="850" pageHeight="1100" math="0" shadow="0">
            <root>
                <mxCell id="0"/>
                <mxCell id="1" parent="0"/>
                <mxCell id="160" value="Bourne shell" style="swimlane;startSize=20;horizontal=1;childLayout=flowLayout;flowOrientation=north;resizable=0;interRankCellSpacing=50;containerType=tree;rounded=0;shadow=0;glass=0;sketch=0;gradientColor=none;" parent="1" vertex="1">
                    <mxGeometry x="70" y="300" width="270" height="600" as="geometry"/>
                </mxCell>
                <mxCell id="430" style="edgeStyle=orthogonalEdgeStyle;orthogonalLoop=1;jettySize=auto;html=1;noEdgeStyle=1;orthogonal=1;curved=1;fillColor=#ffe6cc;strokeColor=#d79b00;dashed=1;" parent="160" source="161" target="164" edge="1">
                    <mxGeometry relative="1" as="geometry">
                        <Array as="points">
                            <mxPoint x="168.75" y="94"/>
                            <mxPoint x="222.5" y="118"/>
                        </Array>
                    </mxGeometry>
                </mxCell>
                <mxCell id="431" style="edgeStyle=orthogonalEdgeStyle;orthogonalLoop=1;jettySize=auto;html=1;noEdgeStyle=1;orthogonal=1;curved=1;fillColor=#d5e8d4;strokeColor=#82b366;dashed=1;" parent="160" source="161" target="162" edge="1">
                    <mxGeometry relative="1" as="geometry">
                        <Array as="points">
                            <mxPoint x="123.75" y="92"/>
                            <mxPoint x="92.5" y="118"/>
                        </Array>
                    </mxGeometry>
                </mxCell>
                <mxCell id="161" value="sh" style="whiteSpace=wrap;html=1;rounded=1;shadow=1;" parent="160" vertex="1">
                    <mxGeometry x="85" y="40" width="100" height="40" as="geometry"/>
                </mxCell>
                <mxCell id="182" style="edgeStyle=orthogonalEdgeStyle;orthogonalLoop=1;jettySize=auto;html=1;noEdgeStyle=1;orthogonal=1;curved=1;shadow=0;fillColor=#d5e8d4;strokeColor=#82b366;dashed=1;" parent="160" source="162" target="170" edge="1">
                    <mxGeometry relative="1" as="geometry">
                        <Array as="points">
                            <mxPoint x="47.5" y="182"/>
                            <mxPoint x="47.5" y="208"/>
                        </Array>
                    </mxGeometry>
                </mxCell>
                <mxCell id="162" value="non-login" style="whiteSpace=wrap;html=1;rounded=1;shadow=1;" parent="160" vertex="1">
                    <mxGeometry x="20" y="130" width="100" height="40" as="geometry"/>
                </mxCell>
                <mxCell id="163" value="" style="html=1;curved=1;noEdgeStyle=1;orthogonal=1;shadow=0;fillColor=#dae8fc;strokeColor=#6c8ebf;dashed=1;" parent="160" source="161" target="162" edge="1">
                    <mxGeometry relative="1" as="geometry">
                        <Array as="points">
                            <mxPoint x="101.25" y="92"/>
                            <mxPoint x="47.5" y="118"/>
                        </Array>
                    </mxGeometry>
                </mxCell>
                <mxCell id="164" value="login" style="whiteSpace=wrap;html=1;rounded=1;shadow=1;" parent="160" vertex="1">
                    <mxGeometry x="150" y="130" width="100" height="40" as="geometry"/>
                </mxCell>
                <mxCell id="165" value="" style="html=1;curved=1;noEdgeStyle=1;orthogonal=1;shadow=0;fillColor=#f8cecc;strokeColor=#b85450;dashed=1;" parent="160" source="161" target="164" edge="1">
                    <mxGeometry relative="1" as="geometry">
                        <Array as="points">
                            <mxPoint x="146.25" y="94"/>
                            <mxPoint x="177.5" y="118"/>
                        </Array>
                    </mxGeometry>
                </mxCell>
                <mxCell id="178" style="edgeStyle=orthogonalEdgeStyle;orthogonalLoop=1;jettySize=auto;html=1;noEdgeStyle=1;orthogonal=1;curved=1;shadow=0;fillColor=#d5e8d4;strokeColor=#82b366;dashed=1;" parent="160" source="166" target="176" edge="1">
                    <mxGeometry relative="1" as="geometry">
                        <Array as="points">
                            <mxPoint x="222.5" y="272"/>
                            <mxPoint x="220" y="285"/>
                            <mxPoint x="220" y="425"/>
                            <mxPoint x="220" y="425"/>
                            <mxPoint x="220" y="515"/>
                            <mxPoint x="218.75" y="526"/>
                        </Array>
                    </mxGeometry>
                </mxCell>
                <mxCell id="298" style="edgeStyle=orthogonalEdgeStyle;rounded=1;orthogonalLoop=1;jettySize=auto;html=1;shadow=0;strokeWidth=1;noEdgeStyle=1;orthogonal=1;fillColor=#fff2cc;strokeColor=#d6b656;dashed=1;" parent="160" source="166" target="172" edge="1">
                    <mxGeometry relative="1" as="geometry">
                        <Array as="points">
                            <mxPoint x="177.5" y="272"/>
                            <mxPoint x="157.5" y="298"/>
                        </Array>
                    </mxGeometry>
                </mxCell>
                <mxCell id="166" value="non-interactive" style="whiteSpace=wrap;html=1;rounded=1;shadow=1;" parent="160" vertex="1">
                    <mxGeometry x="150" y="220" width="100" height="40" as="geometry"/>
                </mxCell>
                <mxCell id="167" value="" style="html=1;curved=1;noEdgeStyle=1;orthogonal=1;shadow=0;fillColor=#dae8fc;strokeColor=#6c8ebf;dashed=1;" parent="160" source="162" target="166" edge="1">
                    <mxGeometry relative="1" as="geometry">
                        <Array as="points">
                            <mxPoint x="92.5" y="182"/>
                            <mxPoint x="177.5" y="208"/>
                        </Array>
                    </mxGeometry>
                </mxCell>
                <mxCell id="168" value="" style="html=1;curved=1;noEdgeStyle=1;orthogonal=1;shadow=0;fillColor=#fff2cc;strokeColor=#d6b656;dashed=1;" parent="160" source="164" target="166" edge="1">
                    <mxGeometry relative="1" as="geometry">
                        <Array as="points">
                            <mxPoint x="222.5" y="182"/>
                            <mxPoint x="222.5" y="208"/>
                        </Array>
                    </mxGeometry>
                </mxCell>
                <mxCell id="169" value="" style="html=1;curved=1;noEdgeStyle=1;orthogonal=1;shadow=0;fillColor=#f8cecc;strokeColor=#b85450;dashed=1;" parent="160" source="164" target="170" edge="1">
                    <mxGeometry relative="1" as="geometry">
                        <mxPoint x="1817.5" y="3160" as="sourcePoint"/>
                        <Array as="points">
                            <mxPoint x="177.5" y="182"/>
                            <mxPoint x="92.5" y="208"/>
                        </Array>
                    </mxGeometry>
                </mxCell>
                <mxCell id="179" style="edgeStyle=orthogonalEdgeStyle;orthogonalLoop=1;jettySize=auto;html=1;noEdgeStyle=1;orthogonal=1;curved=1;shadow=0;fillColor=#d5e8d4;strokeColor=#82b366;dashed=1;" parent="160" source="170" target="174" edge="1">
                    <mxGeometry relative="1" as="geometry">
                        <Array as="points">
                            <mxPoint x="47.5" y="272"/>
                            <mxPoint x="55" y="285"/>
                            <mxPoint x="55" y="425"/>
                            <mxPoint x="77.5" y="438"/>
                        </Array>
                    </mxGeometry>
                </mxCell>
                <mxCell id="170" value="interactive" style="whiteSpace=wrap;html=1;rounded=1;shadow=1;" parent="160" vertex="1">
                    <mxGeometry x="20" y="220" width="100" height="40" as="geometry"/>
                </mxCell>
                <mxCell id="171" value="" style="html=1;curved=1;noEdgeStyle=1;orthogonal=1;shadow=0;fillColor=#f8cecc;strokeColor=#b85450;dashed=1;" parent="160" source="170" target="172" edge="1">
                    <mxGeometry relative="1" as="geometry">
                        <mxPoint x="1862.5" y="3210" as="sourcePoint"/>
                        <Array as="points">
                            <mxPoint x="92.5" y="272"/>
                            <mxPoint x="112.5" y="298"/>
                        </Array>
                    </mxGeometry>
                </mxCell>
                <mxCell id="180" style="edgeStyle=orthogonalEdgeStyle;orthogonalLoop=1;jettySize=auto;html=1;noEdgeStyle=1;orthogonal=1;curved=1;shadow=0;fillColor=#f8cecc;strokeColor=#b85450;dashed=1;" parent="160" source="172" target="176" edge="1">
                    <mxGeometry relative="1" as="geometry">
                        <Array as="points">
                            <mxPoint x="135" y="414"/>
                            <mxPoint x="185" y="425"/>
                            <mxPoint x="185" y="515"/>
                            <mxPoint x="173.75" y="526"/>
                        </Array>
                    </mxGeometry>
                </mxCell>
                <mxCell id="299" style="edgeStyle=orthogonalEdgeStyle;orthogonalLoop=1;jettySize=auto;html=1;shadow=0;strokeWidth=1;noEdgeStyle=1;orthogonal=1;curved=1;fillColor=#fff2cc;strokeColor=#d6b656;dashed=1;" parent="160" source="172" target="176" edge="1">
                    <mxGeometry relative="1" as="geometry">
                        <Array as="points">
                            <mxPoint x="165" y="414"/>
                            <mxPoint x="195" y="425"/>
                            <mxPoint x="195" y="515"/>
                            <mxPoint x="196.25" y="526"/>
                        </Array>
                    </mxGeometry>
                </mxCell>
                <mxCell id="172" value="~/.profile" style="whiteSpace=wrap;html=1;rounded=1;shadow=1;" parent="160" vertex="1">
                    <mxGeometry x="85" y="310" width="100" height="90" as="geometry"/>
                </mxCell>
                <mxCell id="173" value="" style="html=1;curved=1;noEdgeStyle=1;orthogonal=1;shadow=0;fillColor=#f8cecc;strokeColor=#b85450;dashed=1;" parent="160" source="172" target="174" edge="1">
                    <mxGeometry relative="1" as="geometry">
                        <mxPoint x="1800" y="3220" as="sourcePoint"/>
                        <Array as="points">
                            <mxPoint x="105" y="412"/>
                            <mxPoint x="122.5" y="438"/>
                        </Array>
                    </mxGeometry>
                </mxCell>
                <mxCell id="174" value="$ENV" style="whiteSpace=wrap;html=1;rounded=1;shadow=1;" parent="160" vertex="1">
                    <mxGeometry x="50" y="450" width="100" height="40" as="geometry"/>
                </mxCell>
                <mxCell id="175" value="" style="html=1;curved=1;noEdgeStyle=1;orthogonal=1;shadow=0;fillColor=#d5e8d4;strokeColor=#82b366;dashed=1;" parent="160" source="174" target="176" edge="1">
                    <mxGeometry relative="1" as="geometry">
                        <mxPoint x="1778.984375" y="3270" as="sourcePoint"/>
                        <Array as="points">
                            <mxPoint x="100" y="502"/>
                            <mxPoint x="151.25" y="528"/>
                        </Array>
                    </mxGeometry>
                </mxCell>
                <mxCell id="176" value="running..." style="whiteSpace=wrap;html=1;rounded=1;shadow=1;" parent="160" vertex="1">
                    <mxGeometry x="135" y="540" width="100" height="40" as="geometry"/>
                </mxCell>
                <mxCell id="183" value="Bourne Again shell" style="swimlane;startSize=20;horizontal=1;childLayout=flowLayout;flowOrientation=north;resizable=0;interRankCellSpacing=50;containerType=tree;rounded=0;shadow=0;glass=0;sketch=0;labelBackgroundColor=none;flipH=0;flipV=0;strokeWidth=1;" parent="1" vertex="1">
                    <mxGeometry x="425" y="30" width="460" height="930" as="geometry"/>
                </mxCell>
                <mxCell id="221" style="edgeStyle=orthogonalEdgeStyle;orthogonalLoop=1;jettySize=auto;html=1;strokeWidth=1;noEdgeStyle=1;orthogonal=1;fillColor=#ffe6cc;strokeColor=#d79b00;curved=1;" parent="183" source="184" target="185" edge="1">
                    <mxGeometry relative="1" as="geometry">
                        <Array as="points">
                            <mxPoint x="268.57142857142856" y="94"/>
                            <mxPoint x="328.75" y="118"/>
                        </Array>
                    </mxGeometry>
                </mxCell>
                <mxCell id="222" style="edgeStyle=orthogonalEdgeStyle;orthogonalLoop=1;jettySize=auto;html=1;strokeWidth=1;noEdgeStyle=1;orthogonal=1;curved=1;" parent="183" source="184" target="187" edge="1">
                    <mxGeometry relative="1" as="geometry">
                        <Array as="points">
                            <mxPoint x="217.14285714285714" y="92"/>
                            <mxPoint x="195" y="118"/>
                        </Array>
                    </mxGeometry>
                </mxCell>
                <mxCell id="223" style="edgeStyle=orthogonalEdgeStyle;orthogonalLoop=1;jettySize=auto;html=1;strokeWidth=1;noEdgeStyle=1;orthogonal=1;fillColor=#f5f5f5;strokeColor=#666666;curved=1;" parent="183" source="184" target="187" edge="1">
                    <mxGeometry relative="1" as="geometry">
                        <Array as="points">
                            <mxPoint x="204.28571428571428" y="92"/>
                            <mxPoint x="165" y="118"/>
                        </Array>
                    </mxGeometry>
                </mxCell>
                <mxCell id="226" style="edgeStyle=orthogonalEdgeStyle;orthogonalLoop=1;jettySize=auto;html=1;strokeWidth=1;noEdgeStyle=1;orthogonal=1;fillColor=#d5e8d4;strokeColor=#82b366;curved=1;" parent="183" source="184" target="185" edge="1">
                    <mxGeometry relative="1" as="geometry">
                        <Array as="points">
                            <mxPoint x="255.71428571428572" y="94"/>
                            <mxPoint x="306.25" y="118"/>
                        </Array>
                    </mxGeometry>
                </mxCell>
                <mxCell id="227" style="edgeStyle=orthogonalEdgeStyle;orthogonalLoop=1;jettySize=auto;html=1;strokeWidth=1;noEdgeStyle=1;orthogonal=1;fillColor=#dae8fc;strokeColor=#6c8ebf;curved=1;" parent="183" source="184" target="185" edge="1">
                    <mxGeometry relative="1" as="geometry">
                        <Array as="points">
                            <mxPoint x="242.85714285714286" y="94"/>
                            <mxPoint x="283.75" y="118"/>
                        </Array>
                    </mxGeometry>
                </mxCell>
                <mxCell id="184" value="bash" style="whiteSpace=wrap;html=1;rounded=1;glass=0;sketch=0;shadow=1;" parent="183" vertex="1">
                    <mxGeometry x="180" y="40" width="100" height="40" as="geometry"/>
                </mxCell>
                <mxCell id="194" style="edgeStyle=orthogonalEdgeStyle;orthogonalLoop=1;jettySize=auto;html=1;noEdgeStyle=1;orthogonal=1;fillColor=#d5e8d4;strokeColor=#82b366;curved=1;" parent="183" source="185" target="193" edge="1">
                    <mxGeometry relative="1" as="geometry">
                        <Array as="points">
                            <mxPoint x="283.75" y="182"/>
                            <mxPoint x="195" y="206"/>
                        </Array>
                    </mxGeometry>
                </mxCell>
                <mxCell id="228" style="edgeStyle=orthogonalEdgeStyle;orthogonalLoop=1;jettySize=auto;html=1;strokeWidth=1;noEdgeStyle=1;orthogonal=1;fillColor=#ffe6cc;strokeColor=#d79b00;curved=1;" parent="183" source="185" target="189" edge="1">
                    <mxGeometry relative="1" as="geometry">
                        <Array as="points">
                            <mxPoint x="328.75" y="184"/>
                            <mxPoint x="328.75" y="206"/>
                        </Array>
                    </mxGeometry>
                </mxCell>
                <mxCell id="232" style="edgeStyle=orthogonalEdgeStyle;orthogonalLoop=1;jettySize=auto;html=1;strokeWidth=1;noEdgeStyle=1;orthogonal=1;fillColor=#dae8fc;strokeColor=#6c8ebf;curved=1;" parent="183" source="185" target="193" edge="1">
                    <mxGeometry relative="1" as="geometry">
                        <Array as="points">
                            <mxPoint x="261.25" y="182"/>
                            <mxPoint x="165" y="206"/>
                        </Array>
                    </mxGeometry>
                </mxCell>
                <mxCell id="185" value="normal shell" style="whiteSpace=wrap;html=1;rounded=1;glass=0;sketch=0;shadow=1;" parent="183" vertex="1">
                    <mxGeometry x="245" y="130" width="100" height="40" as="geometry"/>
                </mxCell>
                <mxCell id="186" value="" style="html=1;noEdgeStyle=1;orthogonal=1;fillColor=#f8cecc;strokeColor=#b85450;curved=1;" parent="183" source="184" target="185" edge="1">
                    <mxGeometry relative="1" as="geometry">
                        <Array as="points">
                            <mxPoint x="230" y="94"/>
                            <mxPoint x="261.25" y="118"/>
                        </Array>
                    </mxGeometry>
                </mxCell>
                <mxCell id="195" style="edgeStyle=orthogonalEdgeStyle;orthogonalLoop=1;jettySize=auto;html=1;noEdgeStyle=1;orthogonal=1;curved=1;" parent="183" source="187" target="189" edge="1">
                    <mxGeometry relative="1" as="geometry">
                        <Array as="points">
                            <mxPoint x="195" y="184"/>
                            <mxPoint x="283.75" y="208"/>
                        </Array>
                    </mxGeometry>
                </mxCell>
                <mxCell id="187" value="remoote shell (rsh/ssh)" style="whiteSpace=wrap;html=1;rounded=1;glass=0;sketch=0;shadow=1;" parent="183" vertex="1">
                    <mxGeometry x="115" y="130" width="100" height="40" as="geometry"/>
                </mxCell>
                <mxCell id="188" value="" style="html=1;noEdgeStyle=1;orthogonal=1;fillColor=#e1d5e7;strokeColor=#9673a6;curved=1;" parent="183" source="184" target="187" edge="1">
                    <mxGeometry relative="1" as="geometry">
                        <Array as="points">
                            <mxPoint x="191.42857142857142" y="92"/>
                            <mxPoint x="135" y="118"/>
                        </Array>
                    </mxGeometry>
                </mxCell>
                <mxCell id="255" style="edgeStyle=orthogonalEdgeStyle;orthogonalLoop=1;jettySize=auto;html=1;noEdgeStyle=1;orthogonal=1;curved=1;fillColor=#f8cecc;strokeColor=#b85450;" parent="183" source="189" target="236" edge="1">
                    <mxGeometry relative="1" as="geometry">
                        <Array as="points">
                            <mxPoint x="261.25" y="272"/>
                            <mxPoint x="165" y="296"/>
                        </Array>
                    </mxGeometry>
                </mxCell>
                <mxCell id="295" style="edgeStyle=orthogonalEdgeStyle;curved=1;orthogonalLoop=1;jettySize=auto;html=1;noEdgeStyle=1;orthogonal=1;" parent="183" source="189" target="234" edge="1">
                    <mxGeometry relative="1" as="geometry">
                        <Array as="points">
                            <mxPoint x="328.75" y="274"/>
                            <mxPoint x="328.75" y="296"/>
                        </Array>
                    </mxGeometry>
                </mxCell>
                <mxCell id="296" style="edgeStyle=orthogonalEdgeStyle;curved=1;orthogonalLoop=1;jettySize=auto;html=1;noEdgeStyle=1;orthogonal=1;fillColor=#ffe6cc;strokeColor=#d79b00;" parent="183" source="189" target="234" edge="1">
                    <mxGeometry relative="1" as="geometry">
                        <Array as="points">
                            <mxPoint x="306.25" y="274"/>
                            <mxPoint x="306.25" y="296"/>
                        </Array>
                    </mxGeometry>
                </mxCell>
                <mxCell id="189" value="login" style="whiteSpace=wrap;html=1;rounded=1;glass=0;sketch=0;shadow=1;" parent="183" vertex="1">
                    <mxGeometry x="245" y="220" width="100" height="40" as="geometry"/>
                </mxCell>
                <mxCell id="190" value="" style="html=1;noEdgeStyle=1;orthogonal=1;fillColor=#f8cecc;strokeColor=#b85450;curved=1;" parent="183" source="185" target="189" edge="1">
                    <mxGeometry relative="1" as="geometry">
                        <Array as="points">
                            <mxPoint x="306.25" y="184"/>
                            <mxPoint x="306.25" y="206"/>
                        </Array>
                    </mxGeometry>
                </mxCell>
                <mxCell id="191" value="" style="html=1;noEdgeStyle=1;orthogonal=1;fillColor=#e1d5e7;strokeColor=#9673a6;curved=1;" parent="183" source="187" target="189" edge="1">
                    <mxGeometry relative="1" as="geometry">
                        <Array as="points">
                            <mxPoint x="165" y="184"/>
                            <mxPoint x="261.25" y="208"/>
                        </Array>
                    </mxGeometry>
                </mxCell>
                <mxCell id="192" value="" style="html=1;noEdgeStyle=1;orthogonal=1;fillColor=#f5f5f5;strokeColor=#666666;curved=1;" parent="183" source="187" target="193" edge="1">
                    <mxGeometry relative="1" as="geometry">
                        <mxPoint x="4867.5" y="8710" as="sourcePoint"/>
                        <Array as="points">
                            <mxPoint x="135" y="182"/>
                            <mxPoint x="135" y="208"/>
                        </Array>
                    </mxGeometry>
                </mxCell>
                <mxCell id="254" style="edgeStyle=orthogonalEdgeStyle;orthogonalLoop=1;jettySize=auto;html=1;noEdgeStyle=1;orthogonal=1;curved=1;fillColor=#dae8fc;strokeColor=#6c8ebf;" parent="183" source="193" target="234" edge="1">
                    <mxGeometry relative="1" as="geometry">
                        <Array as="points">
                            <mxPoint x="165" y="274"/>
                            <mxPoint x="261.25" y="298"/>
                        </Array>
                    </mxGeometry>
                </mxCell>
                <mxCell id="297" style="edgeStyle=orthogonalEdgeStyle;curved=1;orthogonalLoop=1;jettySize=auto;html=1;noEdgeStyle=1;orthogonal=1;fillColor=#d5e8d4;strokeColor=#82b366;" parent="183" source="193" target="236" edge="1">
                    <mxGeometry relative="1" as="geometry">
                        <Array as="points">
                            <mxPoint x="135" y="272"/>
                            <mxPoint x="135" y="298"/>
                        </Array>
                    </mxGeometry>
                </mxCell>
                <mxCell id="193" value="non-login" style="whiteSpace=wrap;html=1;rounded=1;glass=0;sketch=0;shadow=1;" parent="183" vertex="1">
                    <mxGeometry x="115" y="220" width="100" height="40" as="geometry"/>
                </mxCell>
                <mxCell id="233" value="" style="html=1;noEdgeStyle=1;orthogonal=1;fillColor=#f5f5f5;strokeColor=#666666;curved=1;" parent="183" source="193" target="234" edge="1">
                    <mxGeometry relative="1" as="geometry">
                        <mxPoint x="4290" y="7760" as="sourcePoint"/>
                        <Array as="points">
                            <mxPoint x="195" y="274"/>
                            <mxPoint x="283.75" y="298"/>
                        </Array>
                    </mxGeometry>
                </mxCell>
                <mxCell id="263" style="edgeStyle=orthogonalEdgeStyle;orthogonalLoop=1;jettySize=auto;html=1;noEdgeStyle=1;orthogonal=1;curved=1;fillColor=#dae8fc;strokeColor=#6c8ebf;" parent="183" source="234" target="248" edge="1">
                    <mxGeometry relative="1" as="geometry">
                        <Array as="points">
                            <mxPoint x="328.75" y="364"/>
                            <mxPoint x="440" y="375"/>
                            <mxPoint x="440" y="465"/>
                            <mxPoint x="440" y="465"/>
                            <mxPoint x="440" y="555"/>
                            <mxPoint x="440" y="555"/>
                            <mxPoint x="440" y="645"/>
                            <mxPoint x="295" y="654"/>
                        </Array>
                    </mxGeometry>
                </mxCell>
                <mxCell id="279" style="edgeStyle=orthogonalEdgeStyle;curved=1;orthogonalLoop=1;jettySize=auto;html=1;noEdgeStyle=1;orthogonal=1;" parent="183" source="234" target="238" edge="1">
                    <mxGeometry relative="1" as="geometry">
                        <Array as="points">
                            <mxPoint x="306.25" y="364"/>
                            <mxPoint x="283.4375" y="386"/>
                        </Array>
                    </mxGeometry>
                </mxCell>
                <mxCell id="280" style="edgeStyle=orthogonalEdgeStyle;curved=1;orthogonalLoop=1;jettySize=auto;html=1;noEdgeStyle=1;orthogonal=1;fillColor=#ffe6cc;strokeColor=#d79b00;" parent="183" source="234" target="238" edge="1">
                    <mxGeometry relative="1" as="geometry">
                        <Array as="points">
                            <mxPoint x="283.75" y="364"/>
                            <mxPoint x="257.8125" y="386"/>
                        </Array>
                    </mxGeometry>
                </mxCell>
                <mxCell id="234" value="non-interactive" style="whiteSpace=wrap;html=1;rounded=1;glass=0;shadow=1;" parent="183" vertex="1">
                    <mxGeometry x="245" y="310" width="100" height="40" as="geometry"/>
                </mxCell>
                <mxCell id="235" value="" style="html=1;noEdgeStyle=1;orthogonal=1;fillColor=#e1d5e7;strokeColor=#9673a6;curved=1;" parent="183" source="189" target="236" edge="1">
                    <mxGeometry relative="1" as="geometry">
                        <mxPoint x="4210" y="7720" as="sourcePoint"/>
                        <Array as="points">
                            <mxPoint x="283.75" y="272"/>
                            <mxPoint x="195" y="296"/>
                        </Array>
                    </mxGeometry>
                </mxCell>
                <mxCell id="256" style="edgeStyle=orthogonalEdgeStyle;orthogonalLoop=1;jettySize=auto;html=1;noEdgeStyle=1;orthogonal=1;curved=1;fillColor=#f8cecc;strokeColor=#b85450;" parent="183" source="236" target="238" edge="1">
                    <mxGeometry relative="1" as="geometry">
                        <Array as="points">
                            <mxPoint x="165" y="364"/>
                            <mxPoint x="206.5625" y="388"/>
                        </Array>
                    </mxGeometry>
                </mxCell>
                <mxCell id="281" style="edgeStyle=orthogonalEdgeStyle;curved=1;orthogonalLoop=1;jettySize=auto;html=1;noEdgeStyle=1;orthogonal=1;fillColor=#d5e8d4;strokeColor=#82b366;" parent="183" source="236" target="240" edge="1">
                    <mxGeometry relative="1" as="geometry">
                        <Array as="points">
                            <mxPoint x="135" y="362"/>
                            <mxPoint x="128.75" y="375"/>
                            <mxPoint x="128.75" y="465"/>
                            <mxPoint x="135" y="478"/>
                        </Array>
                    </mxGeometry>
                </mxCell>
                <mxCell id="236" value="interactive" style="whiteSpace=wrap;html=1;rounded=1;glass=0;shadow=1;" parent="183" vertex="1">
                    <mxGeometry x="115" y="310" width="100" height="40" as="geometry"/>
                </mxCell>
                <mxCell id="237" value="" style="html=1;noEdgeStyle=1;orthogonal=1;fillColor=#e1d5e7;strokeColor=#9673a6;curved=1;" parent="183" source="236" target="238" edge="1">
                    <mxGeometry relative="1" as="geometry">
                        <mxPoint x="4220" y="7770" as="sourcePoint"/>
                        <Array as="points">
                            <mxPoint x="195" y="364"/>
                            <mxPoint x="232.1875" y="388"/>
                        </Array>
                    </mxGeometry>
                </mxCell>
                <mxCell id="260" style="edgeStyle=orthogonalEdgeStyle;orthogonalLoop=1;jettySize=auto;html=1;noEdgeStyle=1;orthogonal=1;curved=1;fillColor=#ffe6cc;strokeColor=#d79b00;" parent="183" source="238" target="242" edge="1">
                    <mxGeometry relative="1" as="geometry">
                        <Array as="points">
                            <mxPoint x="274.2857142857143" y="456"/>
                            <mxPoint x="315" y="465"/>
                            <mxPoint x="315" y="555"/>
                            <mxPoint x="363.75" y="566"/>
                        </Array>
                    </mxGeometry>
                </mxCell>
                <mxCell id="261" style="edgeStyle=orthogonalEdgeStyle;orthogonalLoop=1;jettySize=auto;html=1;noEdgeStyle=1;orthogonal=1;curved=1;fillColor=#f8cecc;strokeColor=#b85450;" parent="183" source="238" target="242" edge="1">
                    <mxGeometry relative="1" as="geometry">
                        <Array as="points">
                            <mxPoint x="259.6428571428571" y="456"/>
                            <mxPoint x="305" y="465"/>
                            <mxPoint x="305" y="555"/>
                            <mxPoint x="336.25" y="566"/>
                        </Array>
                    </mxGeometry>
                </mxCell>
                <mxCell id="282" style="edgeStyle=orthogonalEdgeStyle;curved=1;orthogonalLoop=1;jettySize=auto;html=1;noEdgeStyle=1;orthogonal=1;fillColor=#ffe6cc;strokeColor=#d79b00;" parent="183" source="238" target="244" edge="1">
                    <mxGeometry relative="1" as="geometry">
                        <Array as="points">
                            <mxPoint x="245" y="454"/>
                            <mxPoint x="245" y="465"/>
                            <mxPoint x="245" y="555"/>
                            <mxPoint x="242.5" y="566"/>
                        </Array>
                    </mxGeometry>
                </mxCell>
                <mxCell id="283" style="edgeStyle=orthogonalEdgeStyle;curved=1;orthogonalLoop=1;jettySize=auto;html=1;noEdgeStyle=1;orthogonal=1;fillColor=#f8cecc;strokeColor=#b85450;" parent="183" source="238" target="244" edge="1">
                    <mxGeometry relative="1" as="geometry">
                        <Array as="points">
                            <mxPoint x="230.35714285714286" y="454"/>
                            <mxPoint x="265" y="465"/>
                            <mxPoint x="265" y="555"/>
                            <mxPoint x="217.5" y="566"/>
                        </Array>
                    </mxGeometry>
                </mxCell>
                <mxCell id="284" style="edgeStyle=orthogonalEdgeStyle;curved=1;orthogonalLoop=1;jettySize=auto;html=1;noEdgeStyle=1;orthogonal=1;" parent="183" source="238" target="244" edge="1">
                    <mxGeometry relative="1" as="geometry">
                        <Array as="points">
                            <mxPoint x="215.71428571428572" y="454"/>
                            <mxPoint x="255" y="465"/>
                            <mxPoint x="255" y="555"/>
                            <mxPoint x="192.5" y="566"/>
                        </Array>
                    </mxGeometry>
                </mxCell>
                <mxCell id="285" style="edgeStyle=orthogonalEdgeStyle;curved=1;orthogonalLoop=1;jettySize=auto;html=1;noEdgeStyle=1;orthogonal=1;fillColor=#e1d5e7;strokeColor=#9673a6;" parent="183" source="238" target="240" edge="1">
                    <mxGeometry relative="1" as="geometry">
                        <Array as="points">
                            <mxPoint x="201.07142857142858" y="452"/>
                            <mxPoint x="195" y="478"/>
                        </Array>
                    </mxGeometry>
                </mxCell>
                <mxCell id="238" value="/etc/profile" style="whiteSpace=wrap;html=1;rounded=1;glass=0;shadow=1;" parent="183" vertex="1">
                    <mxGeometry x="188.75" y="400" width="112.5" height="40" as="geometry"/>
                </mxCell>
                <mxCell id="239" value="" style="html=1;noEdgeStyle=1;orthogonal=1;fillColor=#f5f5f5;strokeColor=#666666;curved=1;" parent="183" source="234" target="240" edge="1">
                    <mxGeometry relative="1" as="geometry">
                        <mxPoint x="4330" y="7730" as="sourcePoint"/>
                        <Array as="points">
                            <mxPoint x="261.25" y="362"/>
                            <mxPoint x="158.75" y="375"/>
                            <mxPoint x="158.75" y="465"/>
                            <mxPoint x="165" y="476"/>
                        </Array>
                    </mxGeometry>
                </mxCell>
                <mxCell id="289" style="edgeStyle=orthogonalEdgeStyle;curved=1;orthogonalLoop=1;jettySize=auto;html=1;noEdgeStyle=1;orthogonal=1;fillColor=#e1d5e7;strokeColor=#9673a6;" parent="183" source="240" target="242" edge="1">
                    <mxGeometry relative="1" as="geometry">
                        <Array as="points">
                            <mxPoint x="198.75" y="544"/>
                            <mxPoint x="308.75" y="568"/>
                        </Array>
                    </mxGeometry>
                </mxCell>
                <mxCell id="290" style="edgeStyle=orthogonalEdgeStyle;curved=1;orthogonalLoop=1;jettySize=auto;html=1;noEdgeStyle=1;orthogonal=1;fillColor=#d5e8d4;strokeColor=#82b366;" parent="183" source="240" target="246" edge="1">
                    <mxGeometry relative="1" as="geometry">
                        <Array as="points">
                            <mxPoint x="153.75" y="542"/>
                            <mxPoint x="92.5" y="568"/>
                        </Array>
                    </mxGeometry>
                </mxCell>
                <mxCell id="240" value="/etc/bash.bashrc" style="whiteSpace=wrap;html=1;rounded=1;glass=0;shadow=1;" parent="183" vertex="1">
                    <mxGeometry x="115" y="490" width="100" height="40" as="geometry"/>
                </mxCell>
                <mxCell id="241" value="" style="html=1;noEdgeStyle=1;orthogonal=1;curved=1;" parent="183" source="238" target="242" edge="1">
                    <mxGeometry relative="1" as="geometry">
                        <mxPoint x="4180" y="7780" as="sourcePoint"/>
                        <Array as="points">
                            <mxPoint x="288.92857142857144" y="456"/>
                            <mxPoint x="295" y="465"/>
                            <mxPoint x="295" y="555"/>
                            <mxPoint x="391.25" y="566"/>
                        </Array>
                    </mxGeometry>
                </mxCell>
                <mxCell id="291" style="edgeStyle=orthogonalEdgeStyle;curved=1;orthogonalLoop=1;jettySize=auto;html=1;noEdgeStyle=1;orthogonal=1;fillColor=#ffe6cc;strokeColor=#d79b00;" parent="183" source="242" target="248" edge="1">
                    <mxGeometry relative="1" as="geometry">
                        <Array as="points">
                            <mxPoint x="308.75" y="632"/>
                            <mxPoint x="250" y="656"/>
                        </Array>
                    </mxGeometry>
                </mxCell>
                <mxCell id="292" style="edgeStyle=orthogonalEdgeStyle;curved=1;orthogonalLoop=1;jettySize=auto;html=1;noEdgeStyle=1;orthogonal=1;" parent="183" source="242" target="248" edge="1">
                    <mxGeometry relative="1" as="geometry">
                        <Array as="points">
                            <mxPoint x="336.25" y="632"/>
                            <mxPoint x="272.5" y="656"/>
                        </Array>
                    </mxGeometry>
                </mxCell>
                <mxCell id="293" style="edgeStyle=orthogonalEdgeStyle;curved=1;orthogonalLoop=1;jettySize=auto;html=1;noEdgeStyle=1;orthogonal=1;" parent="183" source="242" target="250" edge="1">
                    <mxGeometry relative="1" as="geometry">
                        <Array as="points">
                            <mxPoint x="363.75" y="634"/>
                            <mxPoint x="346.25" y="645"/>
                            <mxPoint x="346.25" y="745"/>
                            <mxPoint x="256.8833333333333" y="752"/>
                        </Array>
                    </mxGeometry>
                </mxCell>
                <mxCell id="294" style="edgeStyle=orthogonalEdgeStyle;curved=1;orthogonalLoop=1;jettySize=auto;html=1;noEdgeStyle=1;orthogonal=1;" parent="183" source="242" target="250" edge="1">
                    <mxGeometry relative="1" as="geometry">
                        <Array as="points">
                            <mxPoint x="391.25" y="634"/>
                            <mxPoint x="356.25" y="645"/>
                            <mxPoint x="356.25" y="745"/>
                            <mxPoint x="274.84444444444443" y="752"/>
                        </Array>
                    </mxGeometry>
                </mxCell>
                <mxCell id="242" value="~/.bash_profile" style="whiteSpace=wrap;html=1;rounded=1;glass=0;shadow=1;" parent="183" vertex="1">
                    <mxGeometry x="290" y="580" width="120" height="40" as="geometry"/>
                </mxCell>
                <mxCell id="243" value="" style="html=1;noEdgeStyle=1;orthogonal=1;fillColor=#e1d5e7;strokeColor=#9673a6;curved=1;" parent="183" source="240" target="244" edge="1">
                    <mxGeometry relative="1" as="geometry">
                        <mxPoint x="4290" y="7740" as="sourcePoint"/>
                        <Array as="points">
                            <mxPoint x="176.25" y="544"/>
                            <mxPoint x="167.5" y="568"/>
                        </Array>
                    </mxGeometry>
                </mxCell>
                <mxCell id="262" style="edgeStyle=orthogonalEdgeStyle;orthogonalLoop=1;jettySize=auto;html=1;noEdgeStyle=1;orthogonal=1;curved=1;fillColor=#ffe6cc;strokeColor=#d79b00;" parent="183" source="244" target="248" edge="1">
                    <mxGeometry relative="1" as="geometry">
                        <Array as="points">
                            <mxPoint x="242.5" y="634"/>
                            <mxPoint x="227.5" y="658"/>
                        </Array>
                    </mxGeometry>
                </mxCell>
                <mxCell id="269" style="edgeStyle=orthogonalEdgeStyle;orthogonalLoop=1;jettySize=auto;html=1;noEdgeStyle=1;orthogonal=1;curved=1;fillColor=#e1d5e7;strokeColor=#9673a6;" parent="183" source="244" target="250" edge="1">
                    <mxGeometry relative="1" as="geometry">
                        <Array as="points">
                            <mxPoint x="167.5" y="632"/>
                            <mxPoint x="153.75" y="645"/>
                            <mxPoint x="153.75" y="745"/>
                            <mxPoint x="167.07777777777778" y="756"/>
                        </Array>
                    </mxGeometry>
                </mxCell>
                <mxCell id="270" style="edgeStyle=orthogonalEdgeStyle;orthogonalLoop=1;jettySize=auto;html=1;noEdgeStyle=1;orthogonal=1;curved=1;fillColor=#f8cecc;strokeColor=#b85450;" parent="183" source="244" target="250" edge="1">
                    <mxGeometry relative="1" as="geometry">
                        <Array as="points">
                            <mxPoint x="192.5" y="632"/>
                            <mxPoint x="163.75" y="645"/>
                            <mxPoint x="163.75" y="745"/>
                            <mxPoint x="185.0388888888889" y="756"/>
                        </Array>
                    </mxGeometry>
                </mxCell>
                <mxCell id="244" value="~/.bash_login" style="whiteSpace=wrap;html=1;rounded=1;glass=0;shadow=1;" parent="183" vertex="1">
                    <mxGeometry x="150" y="580" width="110" height="40" as="geometry"/>
                </mxCell>
                <mxCell id="245" value="" style="html=1;noEdgeStyle=1;orthogonal=1;fillColor=#f5f5f5;strokeColor=#666666;curved=1;" parent="183" source="240" target="246" edge="1">
                    <mxGeometry relative="1" as="geometry">
                        <mxPoint x="4270" y="7700" as="sourcePoint"/>
                        <Array as="points">
                            <mxPoint x="131.25" y="542"/>
                            <mxPoint x="47.5" y="568"/>
                        </Array>
                    </mxGeometry>
                </mxCell>
                <mxCell id="271" style="edgeStyle=orthogonalEdgeStyle;orthogonalLoop=1;jettySize=auto;html=1;noEdgeStyle=1;orthogonal=1;curved=1;fillColor=#f5f5f5;strokeColor=#666666;" parent="183" source="246" target="250" edge="1">
                    <mxGeometry relative="1" as="geometry">
                        <Array as="points">
                            <mxPoint x="47.5" y="632"/>
                            <mxPoint x="113.75" y="645"/>
                            <mxPoint x="113.75" y="745"/>
                            <mxPoint x="131.15555555555557" y="758"/>
                        </Array>
                    </mxGeometry>
                </mxCell>
                <mxCell id="272" style="edgeStyle=orthogonalEdgeStyle;orthogonalLoop=1;jettySize=auto;html=1;noEdgeStyle=1;orthogonal=1;curved=1;fillColor=#d5e8d4;strokeColor=#82b366;" parent="183" source="246" target="250" edge="1">
                    <mxGeometry relative="1" as="geometry">
                        <Array as="points">
                            <mxPoint x="92.5" y="632"/>
                            <mxPoint x="123.75" y="645"/>
                            <mxPoint x="123.75" y="745"/>
                            <mxPoint x="149.11666666666667" y="758"/>
                        </Array>
                    </mxGeometry>
                </mxCell>
                <mxCell id="246" value="~/.bashrc" style="whiteSpace=wrap;html=1;rounded=1;glass=0;shadow=1;" parent="183" vertex="1">
                    <mxGeometry x="20" y="580" width="100" height="40" as="geometry"/>
                </mxCell>
                <mxCell id="247" value="" style="html=1;noEdgeStyle=1;orthogonal=1;curved=1;" parent="183" source="244" target="248" edge="1">
                    <mxGeometry relative="1" as="geometry">
                        <mxPoint x="4292.5" y="7750" as="sourcePoint"/>
                        <Array as="points">
                            <mxPoint x="217.5" y="634"/>
                            <mxPoint x="205" y="658"/>
                        </Array>
                    </mxGeometry>
                </mxCell>
                <mxCell id="264" style="edgeStyle=orthogonalEdgeStyle;orthogonalLoop=1;jettySize=auto;html=1;noEdgeStyle=1;orthogonal=1;curved=1;" parent="183" source="248" target="250" edge="1">
                    <mxGeometry relative="1" as="geometry">
                        <Array as="points">
                            <mxPoint x="250" y="732"/>
                            <mxPoint x="220.9611111111111" y="754"/>
                        </Array>
                    </mxGeometry>
                </mxCell>
                <mxCell id="248" value="$BASH_ENV" style="whiteSpace=wrap;html=1;rounded=1;glass=0;shadow=1;" parent="183" vertex="1">
                    <mxGeometry x="188.75" y="670" width="122.5" height="50" as="geometry"/>
                </mxCell>
                <mxCell id="249" value="" style="html=1;noEdgeStyle=1;orthogonal=1;fillColor=#ffe6cc;strokeColor=#d79b00;curved=1;" parent="183" source="248" target="250" edge="1">
                    <mxGeometry relative="1" as="geometry">
                        <mxPoint x="4230" y="7800" as="sourcePoint"/>
                        <Array as="points">
                            <mxPoint x="212.5" y="732"/>
                            <mxPoint x="203" y="754"/>
                        </Array>
                    </mxGeometry>
                </mxCell>
                <mxCell id="266" style="edgeStyle=orthogonalEdgeStyle;orthogonalLoop=1;jettySize=auto;html=1;noEdgeStyle=1;orthogonal=1;curved=1;fillColor=#f8cecc;strokeColor=#b85450;" parent="183" source="250" target="252" edge="1">
                    <mxGeometry relative="1" as="geometry">
                        <Array as="points">
                            <mxPoint x="203" y="832"/>
                            <mxPoint x="203" y="858"/>
                        </Array>
                    </mxGeometry>
                </mxCell>
                <mxCell id="267" style="edgeStyle=orthogonalEdgeStyle;orthogonalLoop=1;jettySize=auto;html=1;noEdgeStyle=1;orthogonal=1;curved=1;fillColor=#ffe6cc;strokeColor=#d79b00;" parent="183" source="250" target="252" edge="1">
                    <mxGeometry relative="1" as="geometry">
                        <Array as="points">
                            <mxPoint x="256.8833333333333" y="832"/>
                            <mxPoint x="233" y="858"/>
                        </Array>
                    </mxGeometry>
                </mxCell>
                <mxCell id="250" value="running..." style="whiteSpace=wrap;html=1;rounded=1;glass=0;shadow=1;" parent="183" vertex="1">
                    <mxGeometry x="117.175" y="770" width="171.65" height="50" as="geometry"/>
                </mxCell>
                <mxCell id="251" value="" style="html=1;noEdgeStyle=1;orthogonal=1;fillColor=#e1d5e7;strokeColor=#9673a6;curved=1;" parent="183" source="250" target="252" edge="1">
                    <mxGeometry relative="1" as="geometry">
                        <mxPoint x="4210" y="7850" as="sourcePoint"/>
                        <Array as="points">
                            <mxPoint x="149.11666666666667" y="832"/>
                            <mxPoint x="173" y="858"/>
                        </Array>
                    </mxGeometry>
                </mxCell>
                <mxCell id="252" value="~/.bash_logout" style="whiteSpace=wrap;html=1;rounded=1;glass=0;shadow=1;" parent="183" vertex="1">
                    <mxGeometry x="153" y="870" width="100" height="40" as="geometry"/>
                </mxCell>
                <mxCell id="265" style="edgeStyle=orthogonalEdgeStyle;orthogonalLoop=1;jettySize=auto;html=1;noEdgeStyle=1;orthogonal=1;curved=1;" parent="183" source="248" target="250" edge="1">
                    <mxGeometry relative="1" as="geometry">
                        <Array as="points">
                            <mxPoint x="287.5" y="732"/>
                            <mxPoint x="238.92222222222222" y="754"/>
                        </Array>
                    </mxGeometry>
                </mxCell>
                <mxCell id="253" style="edgeStyle=orthogonalEdgeStyle;orthogonalLoop=1;jettySize=auto;html=1;strokeWidth=1;curved=1;fillColor=#fff2cc;strokeColor=#d6b656;" parent="1" source="238" target="172" edge="1">
                    <mxGeometry relative="1" as="geometry">
                        <Array as="points">
                            <mxPoint x="400" y="450"/>
                            <mxPoint x="400" y="630"/>
                        </Array>
                    </mxGeometry>
                </mxCell>
                <mxCell id="273" style="edgeStyle=orthogonalEdgeStyle;orthogonalLoop=1;jettySize=auto;html=1;curved=1;fillColor=#f8cecc;strokeColor=#b85450;" parent="1" source="172" target="250" edge="1">
                    <mxGeometry relative="1" as="geometry">
                        <Array as="points">
                            <mxPoint x="360" y="680"/>
                            <mxPoint x="360" y="820"/>
                        </Array>
                    </mxGeometry>
                </mxCell>
                <mxCell id="275" style="edgeStyle=orthogonalEdgeStyle;curved=1;orthogonalLoop=1;jettySize=auto;html=1;fillColor=#ffe6cc;strokeColor=#d79b00;" parent="1" source="172" target="248" edge="1">
                    <mxGeometry relative="1" as="geometry">
                        <Array as="points">
                            <mxPoint x="370" y="670"/>
                            <mxPoint x="370" y="730"/>
                        </Array>
                    </mxGeometry>
                </mxCell>
                <mxCell id="276" style="edgeStyle=orthogonalEdgeStyle;curved=1;orthogonalLoop=1;jettySize=auto;html=1;" parent="1" source="172" target="248" edge="1">
                    <mxGeometry relative="1" as="geometry">
                        <Array as="points">
                            <mxPoint x="380" y="660"/>
                            <mxPoint x="380" y="720"/>
                        </Array>
                    </mxGeometry>
                </mxCell>
                <mxCell id="277" style="edgeStyle=orthogonalEdgeStyle;curved=1;orthogonalLoop=1;jettySize=auto;html=1;fillColor=#e1d5e7;strokeColor=#9673a6;" parent="1" source="172" target="250" edge="1">
                    <mxGeometry relative="1" as="geometry">
                        <Array as="points">
                            <mxPoint x="350" y="690"/>
                            <mxPoint x="350" y="830"/>
                        </Array>
                    </mxGeometry>
                </mxCell>
                <mxCell id="286" style="edgeStyle=orthogonalEdgeStyle;curved=1;orthogonalLoop=1;jettySize=auto;html=1;fillColor=#f8cecc;strokeColor=#b85450;" parent="1" source="238" target="172" edge="1">
                    <mxGeometry relative="1" as="geometry">
                        <Array as="points">
                            <mxPoint x="390" y="440"/>
                            <mxPoint x="390" y="620"/>
                        </Array>
                    </mxGeometry>
                </mxCell>
                <mxCell id="287" style="edgeStyle=orthogonalEdgeStyle;curved=1;orthogonalLoop=1;jettySize=auto;html=1;" parent="1" source="238" target="172" edge="1">
                    <mxGeometry relative="1" as="geometry">
                        <Array as="points">
                            <mxPoint x="410" y="460"/>
                            <mxPoint x="410" y="640"/>
                        </Array>
                    </mxGeometry>
                </mxCell>
                <mxCell id="288" style="edgeStyle=orthogonalEdgeStyle;curved=1;orthogonalLoop=1;jettySize=auto;html=1;fillColor=#e1d5e7;strokeColor=#9673a6;" parent="1" source="240" target="172" edge="1">
                    <mxGeometry relative="1" as="geometry">
                        <Array as="points">
                            <mxPoint x="420" y="540"/>
                            <mxPoint x="420" y="650"/>
                        </Array>
                    </mxGeometry>
                </mxCell>
            </root>
        </mxGraphModel>
    </diagram>
</mxfile>
